<?xml version="1.0" encoding="UTF-8"?>
<svg width="158px" height="24px" viewBox="0 0 158 24" version="1.1" xmlns="http://www.w3.org/2000/svg" xmlns:xlink="http://www.w3.org/1999/xlink">
    <!-- Generator: sketchtool 51.3 (57544) - http://www.bohemiancoding.com/sketch -->
    <title>7163B70E-3010-47D6-B6D8-9FEC4871863C</title>
    <desc>Created with sketchtool.</desc>
    <defs></defs>
    <g id="Page-1" stroke="none" stroke-width="1" fill="none" fill-rule="evenodd">
        <g id="HP_hovers" transform="translate(-56.000000, -38.000000)">
            <g id="Header">
                <g id="Lusha-+-Hola" transform="translate(56.000000, 34.000000)">
                    <g id="Lusha-logo" transform="translate(0.000000, 4.000000)">
                        <g id="Group-11-Copy-6" transform="translate(0.000000, 7.000000)" fill="#2D4373" fill-rule="nonzero">
                            <path d="M8.16728019,15.9526412 C3.68394517,15.9526412 0.0494840384,12.3921224 0.0494840384,8 C0.0494840384,3.60787756 3.68394517,0.0473588342 8.16728019,0.0473588342 C12.6506152,0.0473588342 16.2850763,3.60787756 16.2850763,8 C16.2850763,12.3921224 12.6506152,15.9526412 8.16728019,15.9526412 Z M8.16728019,13.5264117 C11.2828181,13.5264117 13.8084606,11.0521529 13.8084606,8 C13.8084606,4.94784712 11.2828181,2.47358834 8.16728019,2.47358834 C5.0517423,2.47358834 2.52609981,4.94784712 2.52609981,8 C2.52609981,11.0521529 5.0517423,13.5264117 8.16728019,13.5264117 Z" id="Oval-8-Copy-2"></path>
                            <path d="M31.8327198,15.9526412 C27.3493848,15.9526412 23.7149237,12.3921224 23.7149237,8 C23.7149237,3.60787756 27.3493848,0.0473588342 31.8327198,0.0473588342 C36.3160548,0.0473588342 39.950516,3.60787756 39.950516,8 C39.950516,12.3921224 36.3160548,15.9526412 31.8327198,15.9526412 Z M31.8327198,13.5264117 C34.9482577,13.5264117 37.4739002,11.0521529 37.4739002,8 C37.4739002,4.94784712 34.9482577,2.47358834 31.8327198,2.47358834 C28.7171819,2.47358834 26.1915394,4.94784712 26.1915394,8 C26.1915394,11.0521529 28.7171819,13.5264117 31.8327198,13.5264117 Z" id="Oval-8-Copy-3"></path>
                            <path d="M25.5045553,6.15427011 C23.6746497,5.06598164 21.8510244,4.51018898 20.0454154,4.51018898 C18.2271153,4.51018898 16.4537776,5.07408001 14.7463993,6.17907141 C14.1757755,6.54837116 14.0187873,7.30091861 14.3957564,7.85993319 C14.7727256,8.41894776 15.5409014,8.57274201 16.1115252,8.20344226 C17.4284254,7.35116286 18.7327232,6.93641849 20.0454154,6.93641849 C21.3707987,6.93641849 22.7581987,7.35926123 24.2193514,8.22824356 C24.803957,8.57592246 25.5655762,8.39349713 25.9204755,7.82078518 C26.2753748,7.24807322 26.089161,6.50194901 25.5045553,6.15427011 Z" id="Line-4-Copy"></path>
                        </g>
                        <path d="M60.8900398,20.8344549 L52.9270916,20.8344549 L52.9270916,1.45356662 C52.9270916,1.1628533 52.738247,0.969044415 52.4549801,0.969044415 L50.4721116,0.969044415 C50.1888446,0.969044415 50,1.1628533 50,1.45356662 L50,23.0955585 C50,23.3862719 50.1888446,23.5800808 50.4721116,23.5800808 L60.8900398,23.5800808 C61.1733068,23.5800808 61.3621514,23.3862719 61.3621514,23.0955585 L61.3621514,21.3189771 C61.3621514,21.0282638 61.1733068,20.8344549 60.8900398,20.8344549 Z M77.8545817,7.75235532 L75.9661355,7.75235532 C75.6828685,7.75235532 75.4940239,7.9461642 75.4940239,8.23687752 L75.4940239,17.7012113 C75.4940239,18.7348587 74.014741,21.3835801 71.2450199,21.3835801 C69.1677291,21.3835801 67.7513944,19.9946164 67.7513944,17.2166891 L67.7513944,8.23687752 C67.7513944,7.9461642 67.5625498,7.75235532 67.2792829,7.75235532 L65.3908367,7.75235532 C65.1075697,7.75235532 64.9187251,7.9461642 64.9187251,8.23687752 L64.9187251,17.5397039 C64.9187251,21.7711978 67.1533865,24 70.647012,24 C72.8187251,24 74.4239044,22.8048452 75.4940239,21.1897712 L75.6199203,23.0955585 C75.6513944,23.3862719 75.8087649,23.5800808 76.0920319,23.5800808 L77.8545817,23.5800808 C78.1378486,23.5800808 78.3266932,23.3862719 78.3266932,23.0955585 L78.3266932,8.23687752 C78.3266932,7.9461642 78.1378486,7.75235532 77.8545817,7.75235532 Z M84.8733068,11.8546433 C84.8733068,10.3687752 86.2266932,9.81965007 87.3282869,9.81965007 C88.6816733,9.81965007 89.5944223,10.3687752 90.8219124,11.3701211 C91.0737052,11.5962315 91.325498,11.6608345 91.5143426,11.4024226 L92.238247,10.4656797 C92.3956175,10.2395693 92.4585657,10.013459 92.2697211,9.78734859 C90.9792829,8.23687752 88.9649402,7.39703903 87.2338645,7.39703903 C84.4641434,7.39703903 82.1665339,9.17362046 82.1665339,11.8546433 C82.1665339,17.1520861 90.3498008,15.8600269 90.3498008,19.3162853 C90.3498008,20.6729475 89.1537849,21.3835801 87.5486056,21.3835801 C85.7860558,21.3835801 84.2752988,20.3176312 83.3625498,19.5423957 C83.0792829,19.3162853 82.8904382,19.2516824 82.6701195,19.5100942 L81.8517928,20.640646 C81.6944223,20.8344549 81.6944223,21.0282638 81.8832669,21.2543742 C82.9848606,22.5787349 85.0306773,23.9030956 87.6430279,23.9030956 C90.3498008,23.9030956 93.1195219,22.1588156 93.1195219,19.3485868 C93.1195219,13.6958277 84.8733068,15.1493943 84.8733068,11.8546433 Z M104.450199,7.39703903 C102.121116,7.39703903 100.421514,8.72139973 99.3199203,10.4010767 L99.3199203,0.484522207 C99.3199203,0.193808883 99.1310757,0 98.8478088,0 L96.9593625,0 C96.6760956,0 96.487251,0.193808883 96.487251,0.484522207 L96.487251,23.0955585 C96.487251,23.3862719 96.6760956,23.5800808 96.9593625,23.5800808 L98.8478088,23.5800808 C99.1310757,23.5800808 99.3199203,23.3862719 99.3199203,23.0955585 L99.3199203,13.5989233 C99.3199203,12.9205922 100.830677,10.013459 103.694821,10.013459 C105.709163,10.013459 107.06255,11.3701211 107.06255,14.115747 L107.06255,23.0955585 C107.06255,23.3862719 107.251394,23.5800808 107.534661,23.5800808 L109.423108,23.5800808 C109.706375,23.5800808 109.895219,23.3862719 109.895219,23.0955585 L109.895219,13.7927322 C109.895219,9.56123822 107.660558,7.39703903 104.450199,7.39703903 Z M128.527888,7.75235532 C128.811155,7.75235532 129,7.9461642 129,8.23687752 L129,23.0955585 C129,23.3862719 128.811155,23.5800808 128.527888,23.5800808 L126.859761,23.5800808 C126.576494,23.5800808 126.419124,23.3862719 126.387649,23.0955585 L126.230279,21.1897712 C125.065737,22.7725437 123.303187,23.8061911 120.974104,23.8061911 C116.599203,23.8061911 113.451793,20.1561238 113.451793,15.6985195 C113.451793,11.0794078 116.599203,7.42934051 120.974104,7.42934051 C123.303187,7.42934051 125.097211,8.52759085 126.261753,10.2072678 L126.387649,8.23687752 C126.419124,7.9461642 126.576494,7.75235532 126.859761,7.75235532 L128.527888,7.75235532 Z M121.257371,21.1574697 C124.184462,21.1574697 126.293227,18.7671602 126.293227,15.666218 C126.293227,12.5975774 124.184462,10.0780619 121.257371,10.0780619 C118.330279,10.0780619 116.158566,12.43607 116.158566,15.666218 C116.158566,18.7671602 118.330279,21.1574697 121.257371,21.1574697 Z" id="Lusha" fill="#2D4373"></path>
                        <g id="+" transform="translate(139.000000, 6.000000)" fill="#83A4FF">
                            <rect id="Rectangle" x="7" y="0" width="5" height="18"></rect>
                            <rect id="Rectangle-Copy" transform="translate(9.500000, 9.000000) rotate(-270.000000) translate(-9.500000, -9.000000) " x="7" y="0" width="5" height="18"></rect>
                        </g>
                    </g>
                </g>
            </g>
        </g>
    </g>
</svg>